<?xml version="1.0" encoding="UTF-8"?>
<!DOCTYPE svg PUBLIC "-//W3C//DTD SVG 1.1//EN" "http://www.w3.org/Graphics/SVG/1.1/DTD/svg11.dtd">
<svg xmlns="http://www.w3.org/2000/svg" version="1.1" width="468px" height="533px" style="shape-rendering:geometricPrecision; text-rendering:geometricPrecision; image-rendering:optimizeQuality; fill-rule:evenodd; clip-rule:evenodd" xmlns:xlink="http://www.w3.org/1999/xlink">
<g><path style="opacity:0.024" fill="#fef9d8" d="M 185.5,145.5 C 183.852,144.19 182.186,142.857 180.5,141.5C 178.667,141.167 176.833,140.833 175,140.5C 170.035,140.991 165.202,141.991 160.5,143.5C 166.936,139.776 173.936,138.609 181.5,140C 184.215,140.875 185.548,142.708 185.5,145.5 Z"/></g>
<g><path style="opacity:0.196" fill="#fef9d3" d="M 319.5,149.5 C 314.606,145.886 309.273,143.052 303.5,141C 297.924,139.528 293.091,140.695 289,144.5C 288.333,146.833 288.333,149.167 289,151.5C 293.852,153.477 298.685,155.643 303.5,158C 306.867,161.615 309.2,165.782 310.5,170.5C 310.5,181.167 310.5,191.833 310.5,202.5C 310.5,203.833 310.5,205.167 310.5,206.5C 309.686,204.369 309.186,202.036 309,199.5C 308.667,188.833 308.333,178.167 308,167.5C 306.789,164.241 304.956,161.408 302.5,159C 297.634,156.731 292.634,154.897 287.5,153.5C 284.983,147.369 286.65,142.869 292.5,140C 302.378,138.074 311.045,140.407 318.5,147C 319.252,147.671 319.586,148.504 319.5,149.5 Z"/></g>
<g><path style="opacity:1" fill="#fcc30d" d="M 319.5,149.5 C 319.427,151.027 320.094,152.027 321.5,152.5C 322.927,157.724 323.927,163.058 324.5,168.5C 324.541,176.181 324.207,183.848 323.5,191.5C 323.483,196.111 324.15,200.611 325.5,205C 325.397,206.561 325.063,208.061 324.5,209.5C 321.983,210.864 320.149,212.864 319,215.5C 318.319,213.105 317.485,210.772 316.5,208.5C 314.514,210.783 313.347,210.116 313,206.5C 312.259,203.438 312.425,200.438 313.5,197.5C 313,196.5 312.5,195.5 312,194.5C 311.829,186.323 311.329,178.323 310.5,170.5C 309.2,165.782 306.867,161.615 303.5,158C 298.685,155.643 293.852,153.477 289,151.5C 288.333,149.167 288.333,146.833 289,144.5C 293.091,140.695 297.924,139.528 303.5,141C 309.273,143.052 314.606,145.886 319.5,149.5 Z"/></g>
<g><path style="opacity:0.247" fill="#fef7cc" d="M 160.5,143.5 C 157.5,146.5 154.5,149.5 151.5,152.5C 153.167,148.167 156.167,145.167 160.5,143.5 Z"/></g>
<g><path style="opacity:1" fill="#fbc314" d="M 185.5,145.5 C 186.041,148.652 185.041,151.152 182.5,153C 177.838,153.911 173.505,155.578 169.5,158C 166.894,159.938 165.061,162.438 164,165.5C 164.089,180.59 163.089,195.59 161,210.5C 158.697,219.444 153.697,226.444 146,231.5C 144.78,235.293 145.947,237.96 149.5,239.5C 147.669,240.052 146.003,240.052 144.5,239.5C 143.833,240.5 143.167,241.5 142.5,242.5C 137.964,241.319 137.964,239.319 142.5,236.5C 141.902,235.205 141.402,233.872 141,232.5C 140.781,233.938 140.281,235.271 139.5,236.5C 137.171,238.327 134.838,239.327 132.5,239.5C 131.637,240.726 131.637,242.06 132.5,243.5C 127.236,241.07 125.403,237.07 127,231.5C 131.3,226.199 135.966,221.199 141,216.5C 143.112,213.273 144.945,209.94 146.5,206.5C 148.188,191.615 149.021,176.615 149,161.5C 150.43,158.647 151.263,155.647 151.5,152.5C 154.5,149.5 157.5,146.5 160.5,143.5C 165.202,141.991 170.035,140.991 175,140.5C 176.833,140.833 178.667,141.167 180.5,141.5C 182.186,142.857 183.852,144.19 185.5,145.5 Z"/></g>
<g><path style="opacity:0.145" fill="#fff9d7" d="M 319.5,149.5 C 320.906,149.973 321.573,150.973 321.5,152.5C 320.094,152.027 319.427,151.027 319.5,149.5 Z"/></g>
<g><path style="opacity:0.706" fill="#fceba7" d="M 321.5,152.5 C 324.688,157.251 326.021,162.584 325.5,168.5C 325.167,168.5 324.833,168.5 324.5,168.5C 323.927,163.058 322.927,157.724 321.5,152.5 Z"/></g>
<g><path style="opacity:0.004" fill="#fefff5" d="M 166.5,168.5 C 167.833,169.167 167.833,169.167 166.5,168.5 Z"/></g>
<g><path style="opacity:0.084" fill="#fef5cc" d="M 151.5,152.5 C 151.263,155.647 150.43,158.647 149,161.5C 149.021,176.615 148.188,191.615 146.5,206.5C 145.833,206.833 145.167,207.167 144.5,207.5C 146.087,193.912 146.92,180.245 147,166.5C 147.028,161.253 148.528,156.586 151.5,152.5 Z"/></g>
<g><path style="opacity:0.133" fill="#fef7ca" d="M 310.5,202.5 C 311.482,206.316 312.149,210.316 312.5,214.5C 310.96,212.162 310.294,209.495 310.5,206.5C 310.5,205.167 310.5,203.833 310.5,202.5 Z"/></g>
<g><path style="opacity:0.078" fill="#fefbdb" d="M 325.5,168.5 C 326.292,180.347 327.125,192.347 328,204.5C 329.059,207.618 330.392,210.618 332,213.5C 337.1,218.092 341.6,223.092 345.5,228.5C 338.797,222.963 332.963,216.63 328,209.5C 327.012,206.576 326.346,203.576 326,200.5C 325.5,189.839 325.333,179.172 325.5,168.5 Z"/></g>
<g><path style="opacity:0.161" fill="#fefcda" d="M 231.5,223.5 C 240.427,220.978 248.427,222.811 255.5,229C 258.833,229.333 262.167,229.667 265.5,230C 266.416,230.278 267.082,230.778 267.5,231.5C 263.548,230.728 259.548,230.395 255.5,230.5C 248.615,224.774 240.615,222.441 231.5,223.5 Z"/></g>
<g><path style="opacity:0.047" fill="#fef8d1" d="M 185.5,145.5 C 186.932,148.267 186.599,150.934 184.5,153.5C 179.727,155.118 175.06,156.951 170.5,159C 168.044,161.408 166.211,164.241 165,167.5C 164.969,182.229 164.136,196.896 162.5,211.5C 160.064,220.439 155.064,227.606 147.5,233C 150.232,236.903 153.566,240.403 157.5,243.5C 159.839,247.184 161.172,251.184 161.5,255.5C 161.167,255.5 160.833,255.5 160.5,255.5C 159.775,248.023 156.108,242.689 149.5,239.5C 145.947,237.96 144.78,235.293 146,231.5C 153.697,226.444 158.697,219.444 161,210.5C 163.089,195.59 164.089,180.59 164,165.5C 165.061,162.438 166.894,159.938 169.5,158C 173.505,155.578 177.838,153.911 182.5,153C 185.041,151.152 186.041,148.652 185.5,145.5 Z"/></g>
<g><path style="opacity:0.141" fill="#fefde5" d="M 231.5,223.5 C 229.698,224.458 227.698,225.125 225.5,225.5C 226.99,223.72 228.99,223.054 231.5,223.5 Z"/></g>
<g><path style="opacity:1" fill="#fbc419" d="M 231.5,223.5 C 240.615,222.441 248.615,224.774 255.5,230.5C 259.295,231.617 263.295,232.283 267.5,232.5C 271.122,234.787 274.455,237.453 277.5,240.5C 277.5,241.833 277.5,243.167 277.5,244.5C 276.256,242.407 274.756,240.407 273,238.5C 272.167,239.333 271.333,240.167 270.5,241C 271.451,241.718 271.617,242.551 271,243.5C 270.333,244.833 269.667,244.833 269,243.5C 268.667,247.833 268.333,252.167 268,256.5C 267.252,260.433 266.085,264.1 264.5,267.5C 265.051,264.193 265.384,260.86 265.5,257.5C 267.017,255.538 267.684,253.205 267.5,250.5C 268.076,245.902 266.076,243.068 261.5,242C 253.994,242.743 247.661,240.41 242.5,235C 238.833,234.333 235.167,234.333 231.5,235C 226.149,240.801 219.483,243.134 211.5,242C 210.333,243.167 209.167,244.333 208,245.5C 207.466,249.859 207.632,254.192 208.5,258.5C 206.745,256.239 205.578,253.572 205,250.5C 204.988,254.273 203.821,257.606 201.5,260.5C 199.435,259.346 198.102,257.68 197.5,255.5C 195.647,238.837 203.314,230.337 220.5,230C 222.24,228.483 223.906,226.983 225.5,225.5C 227.698,225.125 229.698,224.458 231.5,223.5 Z"/></g>
<g><path style="opacity:0.741" fill="#f8d967" d="M 255.5,230.5 C 259.548,230.395 263.548,230.728 267.5,231.5C 267.5,231.833 267.5,232.167 267.5,232.5C 263.295,232.283 259.295,231.617 255.5,230.5 Z"/></g>
<g><path style="opacity:0.012" fill="#fcfff6" d="M 149.5,232.5 C 150.833,233.167 150.833,233.167 149.5,232.5 Z"/></g>
<g><path style="opacity:0.075" fill="#fef9d3" d="M 267.5,232.5 C 267.5,232.167 267.5,231.833 267.5,231.5C 272.104,233.105 275.438,236.105 277.5,240.5C 274.455,237.453 271.122,234.787 267.5,232.5 Z"/></g>
<g><path style="opacity:1" fill="#fbc315" d="M 324.5,168.5 C 324.833,168.5 325.167,168.5 325.5,168.5C 325.333,179.172 325.5,189.839 326,200.5C 326.346,203.576 327.012,206.576 328,209.5C 332.963,216.63 338.797,222.963 345.5,228.5C 346.299,231.43 346.632,234.43 346.5,237.5C 340.866,243.304 335.366,249.304 330,255.5C 327.628,259.905 326.128,264.572 325.5,269.5C 324.678,283.339 324.012,297.339 323.5,311.5C 321.189,314.767 318.856,318.1 316.5,321.5C 314.6,323.616 312.267,324.949 309.5,325.5C 303.855,326.134 298.189,326.468 292.5,326.5C 291.29,326.068 290.29,325.401 289.5,324.5C 289.336,321.813 289.503,319.146 290,316.5C 293.872,314.319 298.039,312.819 302.5,312C 305.306,308.886 307.473,305.386 309,301.5C 309.999,289.52 310.666,277.52 311,265.5C 311.496,257.495 313.829,250.162 318,243.5C 321.698,240.629 325.198,237.629 328.5,234.5C 325.601,231.096 322.434,227.763 319,224.5C 317.058,220.931 314.892,217.598 312.5,214.5C 312.149,210.316 311.482,206.316 310.5,202.5C 310.5,191.833 310.5,181.167 310.5,170.5C 311.329,178.323 311.829,186.323 312,194.5C 312.5,195.5 313,196.5 313.5,197.5C 312.425,200.438 312.259,203.438 313,206.5C 313.347,210.116 314.514,210.783 316.5,208.5C 317.485,210.772 318.319,213.105 319,215.5C 320.149,212.864 321.983,210.864 324.5,209.5C 325.063,208.061 325.397,206.561 325.5,205C 324.15,200.611 323.483,196.111 323.5,191.5C 324.207,183.848 324.541,176.181 324.5,168.5 Z"/></g>
<g><path style="opacity:0.541" fill="#f7e9ac" d="M 345.5,228.5 C 346.906,228.973 347.573,229.973 347.5,231.5C 347.795,233.735 347.461,235.735 346.5,237.5C 346.632,234.43 346.299,231.43 345.5,228.5 Z"/></g>
<g><path style="opacity:0.114" fill="#fef7cf" d="M 312.5,214.5 C 314.892,217.598 317.058,220.931 319,224.5C 322.434,227.763 325.601,231.096 328.5,234.5C 325.198,237.629 321.698,240.629 318,243.5C 313.829,250.162 311.496,257.495 311,265.5C 310.666,277.52 309.999,289.52 309,301.5C 307.473,305.386 305.306,308.886 302.5,312C 298.039,312.819 293.872,314.319 290,316.5C 289.503,319.146 289.336,321.813 289.5,324.5C 288.539,322.735 288.205,320.735 288.5,318.5C 288.286,316.856 288.62,315.356 289.5,314C 293.42,312.687 297.42,311.687 301.5,311C 305.13,307.238 307.297,302.738 308,297.5C 307.976,282.36 309.31,267.36 312,252.5C 312.721,248.658 314.387,245.324 317,242.5C 320.528,239.967 323.694,237.134 326.5,234C 323.4,230.9 320.233,227.733 317,224.5C 314.682,221.531 313.182,218.198 312.5,214.5 Z"/></g>
<g><path style="opacity:1" fill="#fcc310" d="M 149.5,239.5 C 156.108,242.689 159.775,248.023 160.5,255.5C 161.079,265.157 161.579,274.824 162,284.5C 162.198,286.382 162.698,288.048 163.5,289.5C 163.458,296.971 165.291,303.971 169,310.5C 169.671,311.252 170.504,311.586 171.5,311.5C 171.611,312.117 171.944,312.617 172.5,313C 175.424,313.988 178.424,314.654 181.5,315C 186.153,320.413 185.153,324.413 178.5,327C 175.183,327.498 171.85,327.665 168.5,327.5C 166.039,326.469 163.373,325.802 160.5,325.5C 155.739,320.973 152.239,315.639 150,309.5C 148.597,296.218 148.097,282.885 148.5,269.5C 148.741,267.102 148.074,265.102 146.5,263.5C 145.908,260.309 144.741,257.309 143,254.5C 139.97,250.305 136.47,246.639 132.5,243.5C 131.637,242.06 131.637,240.726 132.5,239.5C 134.838,239.327 137.171,238.327 139.5,236.5C 140.281,235.271 140.781,233.938 141,232.5C 141.402,233.872 141.902,235.205 142.5,236.5C 137.964,239.319 137.964,241.319 142.5,242.5C 143.167,241.5 143.833,240.5 144.5,239.5C 146.003,240.052 147.669,240.052 149.5,239.5 Z"/></g>
<g><path style="opacity:0.086" fill="#fef8d0" d="M 146.5,206.5 C 144.945,209.94 143.112,213.273 141,216.5C 135.966,221.199 131.3,226.199 127,231.5C 125.403,237.07 127.236,241.07 132.5,243.5C 136.47,246.639 139.97,250.305 143,254.5C 144.741,257.309 145.908,260.309 146.5,263.5C 146.259,265.898 146.926,267.898 148.5,269.5C 148.097,282.885 148.597,296.218 150,309.5C 152.239,315.639 155.739,320.973 160.5,325.5C 158.574,324.758 156.741,323.758 155,322.5C 152.521,319.04 150.521,315.373 149,311.5C 147.763,298.213 147.096,284.88 147,271.5C 144.945,259.063 138.612,249.396 128,242.5C 123.744,238.134 123.411,233.467 127,228.5C 134.199,222.483 140.032,215.483 144.5,207.5C 145.167,207.167 145.833,206.833 146.5,206.5 Z"/></g>
<g><path style="opacity:1" fill="#fbc312" d="M 277.5,244.5 C 278.161,246.134 278.494,247.967 278.5,250C 276.955,263.288 273.789,276.121 269,288.5C 266.055,300.127 263.389,311.794 261,323.5C 259.556,325.155 257.722,325.822 255.5,325.5C 254.222,325.218 253.222,324.551 252.5,323.5C 252.437,318.797 252.771,314.13 253.5,309.5C 254.661,302.688 256.328,296.022 258.5,289.5C 260.277,286.495 261.277,283.162 261.5,279.5C 261.5,279.167 261.5,278.833 261.5,278.5C 262.725,277.848 263.392,276.681 263.5,275C 263.917,272.502 264.251,270.002 264.5,267.5C 266.085,264.1 267.252,260.433 268,256.5C 268.333,252.167 268.667,247.833 269,243.5C 269.667,244.833 270.333,244.833 271,243.5C 271.617,242.551 271.451,241.718 270.5,241C 271.333,240.167 272.167,239.333 273,238.5C 274.756,240.407 276.256,242.407 277.5,244.5 Z"/></g>
<g><path style="opacity:0.061" fill="#fef9d5" d="M 265.5,257.5 C 268.684,245.852 264.35,241.019 252.5,243C 248.835,241.503 245.502,239.503 242.5,237C 235.725,235.229 230.058,236.896 225.5,242C 222.179,243.438 218.846,243.605 215.5,242.5C 210.781,243.384 208.448,246.217 208.5,251C 210.639,257.665 211.972,264.498 212.5,271.5C 211.691,269.972 211.024,268.306 210.5,266.5C 210.59,263.848 209.924,261.515 208.5,259.5C 208.5,259.167 208.5,258.833 208.5,258.5C 207.632,254.192 207.466,249.859 208,245.5C 209.167,244.333 210.333,243.167 211.5,242C 219.483,243.134 226.149,240.801 231.5,235C 235.167,234.333 238.833,234.333 242.5,235C 247.661,240.41 253.994,242.743 261.5,242C 266.076,243.068 268.076,245.902 267.5,250.5C 267.684,253.205 267.017,255.538 265.5,257.5 Z"/></g>
<g><path style="opacity:0.312" fill="#fef7cc" d="M 225.5,225.5 C 223.906,226.983 222.24,228.483 220.5,230C 203.314,230.337 195.647,238.837 197.5,255.5C 198.169,260.514 199.003,265.514 200,270.5C 206.067,287.767 210.734,305.434 214,323.5C 216.667,327.5 219.333,327.5 222,323.5C 222.698,316.077 222.198,308.744 220.5,301.5C 223.706,309.194 224.54,317.194 223,325.5C 219.667,328.167 216.333,328.167 213,325.5C 208.698,304.922 203.365,284.589 197,264.5C 195.533,257.223 195.199,249.889 196,242.5C 200.866,232.98 208.699,228.48 219.5,229C 220.916,226.735 222.916,225.569 225.5,225.5 Z"/></g>
<g><path style="opacity:1" fill="#fbc318" d="M 208.5,258.5 C 208.5,258.833 208.5,259.167 208.5,259.5C 208.41,262.152 209.076,264.485 210.5,266.5C 211.024,268.306 211.691,269.972 212.5,271.5C 214.559,281.742 217.226,291.742 220.5,301.5C 222.198,308.744 222.698,316.077 222,323.5C 219.333,327.5 216.667,327.5 214,323.5C 210.734,305.434 206.067,287.767 200,270.5C 199.003,265.514 198.169,260.514 197.5,255.5C 198.102,257.68 199.435,259.346 201.5,260.5C 203.821,257.606 204.988,254.273 205,250.5C 205.578,253.572 206.745,256.239 208.5,258.5 Z"/></g>
<g><path style="opacity:0.071" fill="#fefad8" d="M 347.5,231.5 C 349.238,233.119 349.738,235.119 349,237.5C 343.023,243.145 337.357,249.145 332,255.5C 328.57,261.525 326.404,267.858 325.5,274.5C 325.5,272.833 325.5,271.167 325.5,269.5C 326.128,264.572 327.628,259.905 330,255.5C 335.366,249.304 340.866,243.304 346.5,237.5C 347.461,235.735 347.795,233.735 347.5,231.5 Z"/></g>
<g><path style="opacity:0.067" fill="#fefde6" d="M 161.5,255.5 C 162.268,256.263 162.768,257.263 163,258.5C 163.498,261.817 163.665,265.15 163.5,268.5C 163.167,268.5 162.833,268.5 162.5,268.5C 162.533,264.131 162.2,259.798 161.5,255.5 Z"/></g>
<g><path style="opacity:0.871" fill="#f3d057" d="M 208.5,259.5 C 209.924,261.515 210.59,263.848 210.5,266.5C 209.076,264.485 208.41,262.152 208.5,259.5 Z"/></g>
<g><path style="opacity:0.588" fill="#f6de7e" d="M 146.5,263.5 C 148.074,265.102 148.741,267.102 148.5,269.5C 146.926,267.898 146.259,265.898 146.5,263.5 Z"/></g>
<g><path style="opacity:1" fill="#f7cc49" d="M 264.5,267.5 C 264.251,270.002 263.917,272.502 263.5,275C 263.392,276.681 262.725,277.848 261.5,278.5C 261.742,274.521 262.742,270.854 264.5,267.5 Z"/></g>
<g><path style="opacity:0.962" fill="#f4ca45" d="M 160.5,255.5 C 160.833,255.5 161.167,255.5 161.5,255.5C 162.2,259.798 162.533,264.131 162.5,268.5C 162.999,275.49 163.332,282.49 163.5,289.5C 162.698,288.048 162.198,286.382 162,284.5C 161.579,274.824 161.079,265.157 160.5,255.5 Z"/></g>
<g><path style="opacity:0.182" fill="#fef7ca" d="M 162.5,268.5 C 162.833,268.5 163.167,268.5 163.5,268.5C 163.875,280.549 165.042,292.549 167,304.5C 168.511,306.862 170.011,309.195 171.5,311.5C 170.504,311.586 169.671,311.252 169,310.5C 165.291,303.971 163.458,296.971 163.5,289.5C 163.332,282.49 162.999,275.49 162.5,268.5 Z"/></g>
<g><path style="opacity:0.392" fill="#fef8cd" d="M 212.5,271.5 C 216.084,281.162 218.75,291.162 220.5,301.5C 217.226,291.742 214.559,281.742 212.5,271.5 Z"/></g>
<g><path style="opacity:0.816" fill="#f5d260" d="M 261.5,279.5 C 261.277,283.162 260.277,286.495 258.5,289.5C 258.723,285.838 259.723,282.505 261.5,279.5 Z"/></g>
<g><path style="opacity:0.318" fill="#fdf5c8" d="M 277.5,240.5 C 279.053,243.017 280.053,245.85 280.5,249C 279.782,252.461 279.282,255.961 279,259.5C 272.702,281.357 267.036,303.357 262,325.5C 261.329,326.252 260.496,326.586 259.5,326.5C 257.901,326.768 256.568,326.434 255.5,325.5C 257.722,325.822 259.556,325.155 261,323.5C 263.389,311.794 266.055,300.127 269,288.5C 273.789,276.121 276.955,263.288 278.5,250C 278.494,247.967 278.161,246.134 277.5,244.5C 277.5,243.167 277.5,241.833 277.5,240.5 Z"/></g>
<g><path style="opacity:0.161" fill="#fefbdc" d="M 265.5,257.5 C 265.384,260.86 265.051,264.193 264.5,267.5C 262.742,270.854 261.742,274.521 261.5,278.5C 261.5,278.833 261.5,279.167 261.5,279.5C 259.723,282.505 258.723,285.838 258.5,289.5C 256.328,296.022 254.661,302.688 253.5,309.5C 252.833,310.5 252.167,311.5 251.5,312.5C 255.422,293.861 260.089,275.527 265.5,257.5 Z"/></g>
<g><path style="opacity:0.286" fill="#fdf1b9" d="M 325.5,269.5 C 325.5,271.167 325.5,272.833 325.5,274.5C 325.323,279.866 325.656,285.2 326.5,290.5C 326.056,297.725 325.056,304.725 323.5,311.5C 324.012,297.339 324.678,283.339 325.5,269.5 Z"/></g>
<g><path style="opacity:0.451" fill="#fcf0b8" d="M 253.5,309.5 C 252.771,314.13 252.437,318.797 252.5,323.5C 252.167,323.5 251.833,323.5 251.5,323.5C 250.304,320.192 250.304,316.525 251.5,312.5C 252.167,311.5 252.833,310.5 253.5,309.5 Z"/></g>
<g><path style="opacity:0.298" fill="#fdf8d3" d="M 171.5,311.5 C 175.535,312.101 179.535,312.934 183.5,314C 188.112,321.107 186.445,326.107 178.5,329C 174.194,329.912 170.194,329.412 166.5,327.5C 167.167,327.5 167.833,327.5 168.5,327.5C 171.85,327.665 175.183,327.498 178.5,327C 185.153,324.413 186.153,320.413 181.5,315C 178.424,314.654 175.424,313.988 172.5,313C 171.944,312.617 171.611,312.117 171.5,311.5 Z"/></g>
<g><path style="opacity:0.019" fill="#fefdeb" d="M 288.5,318.5 C 288.205,320.735 288.539,322.735 289.5,324.5C 290.29,325.401 291.29,326.068 292.5,326.5C 292.5,326.833 292.5,327.167 292.5,327.5C 288.451,327.129 286.451,324.796 286.5,320.5C 286.747,319.287 287.414,318.62 288.5,318.5 Z"/></g>
<g><path style="opacity:0.09" fill="#fff9e1" d="M 251.5,323.5 C 251.833,323.5 252.167,323.5 252.5,323.5C 253.222,324.551 254.222,325.218 255.5,325.5C 256.568,326.434 257.901,326.768 259.5,326.5C 258.054,327.613 256.387,327.78 254.5,327C 252.574,326.578 251.574,325.411 251.5,323.5 Z"/></g>
<g><path style="opacity:0.549" fill="#fcefb2" d="M 160.5,325.5 C 163.373,325.802 166.039,326.469 168.5,327.5C 167.833,327.5 167.167,327.5 166.5,327.5C 164.102,327.741 162.102,327.074 160.5,325.5 Z"/></g>
<g><path style="opacity:0.804" fill="#f0c948" d="M 309.5,325.5 C 304.432,327.178 299.098,327.844 293.5,327.5C 293.167,327.5 292.833,327.5 292.5,327.5C 292.5,327.167 292.5,326.833 292.5,326.5C 298.189,326.468 303.855,326.134 309.5,325.5 Z"/></g>
<g><path style="opacity:0.063" fill="#fef8d4" d="M 323.5,311.5 C 321.191,321.641 314.857,327.474 304.5,329C 301.5,329.667 298.5,329.667 295.5,329C 294.584,328.722 293.918,328.222 293.5,327.5C 299.098,327.844 304.432,327.178 309.5,325.5C 312.267,324.949 314.6,323.616 316.5,321.5C 318.856,318.1 321.189,314.767 323.5,311.5 Z"/></g>
<g><path style="opacity:0.067" fill="#e1fdfd" d="M 190.5,341.5 C 221.664,340.336 252.997,340.169 284.5,341C 285.942,341.377 286.942,342.21 287.5,343.5C 286.078,343.291 284.745,342.791 283.5,342C 252.502,341.5 221.502,341.333 190.5,341.5 Z"/></g>
<g><path style="opacity:0.01" fill="#def5f6" d="M 188.5,342.5 C 185.461,346.065 184.795,350.065 186.5,354.5C 185.883,354.389 185.383,354.056 185,353.5C 184.038,349.181 184.705,345.181 187,341.5C 187.383,342.056 187.883,342.389 188.5,342.5 Z"/></g>
<g><path style="opacity:1" fill="#0e93a3" d="M 190.5,341.5 C 221.502,341.333 252.502,341.5 283.5,342C 284.745,342.791 286.078,343.291 287.5,343.5C 289.652,346.611 289.985,349.944 288.5,353.5C 287.167,354.167 286.167,355.167 285.5,356.5C 253.498,356.667 221.498,356.5 189.5,356C 188.756,354.961 187.756,354.461 186.5,354.5C 184.795,350.065 185.461,346.065 188.5,342.5C 188.842,341.662 189.508,341.328 190.5,341.5 Z"/></g>
<g><path style="opacity:0.012" fill="#e5f9f9" d="M 287.5,343.5 C 289.876,344.512 290.876,346.345 290.5,349C 290.693,351.008 290.026,352.508 288.5,353.5C 289.985,349.944 289.652,346.611 287.5,343.5 Z"/></g>
<g><path style="opacity:0.004" fill="#e0f8f9" d="M 288.5,353.5 C 288.5,355.5 287.5,356.5 285.5,356.5C 286.167,355.167 287.167,354.167 288.5,353.5 Z"/></g>
<g><path style="opacity:0.333" fill="#aadbde" d="M 186.5,354.5 C 187.756,354.461 188.756,354.961 189.5,356C 221.498,356.5 253.498,356.667 285.5,356.5C 253.336,357.664 221.003,357.831 188.5,357C 187.619,356.292 186.953,355.458 186.5,354.5 Z"/></g>
<g><path style="opacity:0.388" fill="#c2e9eb" d="M 195.5,366.5 C 191.464,370.039 190.464,374.372 192.5,379.5C 189.393,376.645 188.893,373.312 191,369.5C 192.129,367.859 193.629,366.859 195.5,366.5 Z"/></g>
<g><path style="opacity:1" fill="#339dab" d="M 281.5,368.5 C 282.774,370.993 283.44,373.659 283.5,376.5C 283.5,376.833 283.5,377.167 283.5,377.5C 281.833,378.5 280.5,379.833 279.5,381.5C 251.402,382.828 223.402,382.828 195.5,381.5C 195.027,380.094 194.027,379.427 192.5,379.5C 190.464,374.372 191.464,370.039 195.5,366.5C 222.997,365.336 250.664,365.17 278.5,366C 279.942,366.377 280.942,367.21 281.5,368.5 Z"/></g>
<g><path style="opacity:0.173" fill="#bde3e7" d="M 281.5,368.5 C 282.931,368.881 283.764,369.881 284,371.5C 284.78,373.387 284.613,375.054 283.5,376.5C 283.44,373.659 282.774,370.993 281.5,368.5 Z"/></g>
<g><path style="opacity:0.004" fill="#ddf5f7" d="M 283.5,377.5 C 283.167,379.833 281.833,381.167 279.5,381.5C 280.5,379.833 281.833,378.5 283.5,377.5 Z"/></g>
<g><path style="opacity:0.306" fill="#b5e4e6" d="M 192.5,379.5 C 194.027,379.427 195.027,380.094 195.5,381.5C 193.973,381.573 192.973,380.906 192.5,379.5 Z"/></g>
<g><path style="opacity:0.606" fill="#97c8ce" d="M 269.5,393.5 C 248.5,393.5 227.5,393.5 206.5,393.5C 206.5,393.167 206.5,392.833 206.5,392.5C 226.427,391.346 246.427,391.18 266.5,392C 267.737,392.232 268.737,392.732 269.5,393.5 Z"/></g>
<g><path style="opacity:0.443" fill="#bae7ea" d="M 206.5,392.5 C 206.5,392.833 206.5,393.167 206.5,393.5C 202.207,395.474 200.54,398.807 201.5,403.5C 199.144,398.11 200.811,394.444 206.5,392.5 Z"/></g>
<g><path style="opacity:0.02" fill="#c7ebef" d="M 269.5,393.5 C 271.5,393.5 272.5,394.5 272.5,396.5C 271.167,395.833 270.167,394.833 269.5,393.5 Z"/></g>
<g><path style="opacity:1" fill="#0593a3" d="M 206.5,393.5 C 227.5,393.5 248.5,393.5 269.5,393.5C 270.167,394.833 271.167,395.833 272.5,396.5C 272.5,399.167 272.5,401.833 272.5,404.5C 271.167,405.167 270.167,406.167 269.5,407.5C 248.164,407.667 226.831,407.5 205.5,407C 204.756,405.961 203.756,405.461 202.5,405.5C 201.662,405.158 201.328,404.492 201.5,403.5C 200.54,398.807 202.207,395.474 206.5,393.5 Z"/></g>
<g><path style="opacity:0.62" fill="#a3d8db" d="M 272.5,396.5 C 275.167,399.167 275.167,401.833 272.5,404.5C 272.5,401.833 272.5,399.167 272.5,396.5 Z"/></g>
<g><path style="opacity:0.012" fill="#d8f4f5" d="M 272.5,404.5 C 272.5,406.5 271.5,407.5 269.5,407.5C 270.167,406.167 271.167,405.167 272.5,404.5 Z"/></g>
<g><path style="opacity:0.474" fill="#b1dddf" d="M 202.5,405.5 C 203.756,405.461 204.756,405.961 205.5,407C 226.831,407.5 248.164,407.667 269.5,407.5C 268.122,408.234 266.622,408.901 265,409.5C 247.989,408.845 230.655,408.845 213,409.5C 210.102,409.363 207.269,408.863 204.5,408C 203.619,407.292 202.953,406.458 202.5,405.5 Z"/></g>
<g><path style="opacity:0.016" fill="#caeef1" d="M 255.5,419.5 C 257.5,419.5 258.5,420.5 258.5,422.5C 257.167,421.833 256.167,420.833 255.5,419.5 Z"/></g>
<g><path style="opacity:1" fill="#339caa" d="M 255.5,419.5 C 256.167,420.833 257.167,421.833 258.5,422.5C 259.219,424.764 259.552,427.097 259.5,429.5C 258.647,432.518 256.647,434.351 253.5,435C 242.5,435.667 231.5,435.667 220.5,435C 219.584,434.722 218.918,434.222 218.5,433.5C 217.833,432.167 216.833,431.167 215.5,430.5C 214.658,425.949 215.992,422.283 219.5,419.5C 231.5,418.167 243.5,418.167 255.5,419.5 Z"/></g>
<g><path style="opacity:0.235" fill="#bce7eb" d="M 219.5,419.5 C 215.992,422.283 214.658,425.949 215.5,430.5C 214.711,430.217 214.044,429.717 213.5,429C 213.021,424.489 215.021,421.322 219.5,419.5 Z"/></g>
<g><path style="opacity:0.149" fill="#cff1f5" d="M 258.5,422.5 C 259.993,423.312 260.66,424.645 260.5,426.5C 260.48,427.726 260.147,428.726 259.5,429.5C 259.552,427.097 259.219,424.764 258.5,422.5 Z"/></g>
<g><path style="opacity:0.004" fill="#d3f1f1" d="M 215.5,430.5 C 216.833,431.167 217.833,432.167 218.5,433.5C 216.5,433.5 215.5,432.5 215.5,430.5 Z"/></g>
</svg>
